<svg aria-hidden="true" style="position: absolute; width: 0; height: 0; overflow: hidden;" version="1.1" xmlns="http://www.w3.org/2000/svg" xmlns:xlink="http://www.w3.org/1999/xlink">
<defs>
<symbol id="icon-appstore" viewBox="0 0 32 32">
<path fill="#fff" style="fill: var(--color1, #fff)" d="M16 2c-7.734 0-14 6.266-14 14s6.266 14 14 14c7.734 0 14-6.266 14-14s-6.266-14-14-14zM10.688 22.118c-0.086 0.147-0.209 0.268-0.357 0.352s-0.315 0.128-0.485 0.126c-0.173 0.002-0.343-0.045-0.491-0.135-0.11-0.064-0.207-0.149-0.284-0.25s-0.134-0.217-0.166-0.34c-0.033-0.123-0.040-0.252-0.023-0.378s0.059-0.248 0.124-0.358l0.956-1.589c0.048-0.082 0.117-0.15 0.2-0.197s0.176-0.072 0.271-0.072h0.141c0.693 0 1.178 0.417 1.319 0.821l-1.205 2.019zM18.778 18.993l-10.417 0.007c-0.131 0.001-0.26-0.026-0.381-0.076s-0.229-0.126-0.32-0.22c-0.091-0.094-0.161-0.206-0.207-0.329s-0.067-0.253-0.061-0.384c0.020-0.525 0.478-0.922 1-0.922h3.015l3.574-6.084-1.158-1.972c-0.261-0.449-0.145-1.042 0.302-1.324 0.11-0.071 0.234-0.12 0.363-0.142s0.262-0.018 0.389 0.012c0.128 0.030 0.248 0.086 0.354 0.164s0.194 0.176 0.261 0.289l0.619 1.057h0.007l0.619-1.057c0.067-0.112 0.155-0.21 0.261-0.288s0.225-0.133 0.352-0.163c0.127-0.030 0.259-0.034 0.388-0.012s0.252 0.070 0.362 0.14c0.444 0.282 0.559 0.875 0.296 1.326l-4.726 8.056v0.007h3.601c0.451 0 1.017 0.242 1.246 0.633l0.020 0.041c0.202 0.343 0.316 0.579 0.316 0.922-0.003 0.111-0.028 0.221-0.073 0.323l-0.002-0.002zM23.637 19h-1.694v0.007l1.239 2.107c0.133 0.222 0.174 0.487 0.114 0.739s-0.217 0.47-0.437 0.607c-0.152 0.093-0.327 0.142-0.505 0.142-0.169 0-0.336-0.044-0.483-0.127s-0.271-0.204-0.358-0.349l-2.968-5.054-1.468-2.509c-0.213-0.358-0.328-0.766-0.335-1.182s0.094-0.828 0.294-1.193c0.29-0.512 0.512-0.646 0.512-0.646l3.264 5.521h2.807c0.525 0 0.976 0.404 1 0.922 0.005 0.132-0.017 0.263-0.064 0.386s-0.118 0.235-0.21 0.33c-0.091 0.095-0.201 0.17-0.323 0.222s-0.252 0.078-0.384 0.077h-0.002z"></path>
</symbol>
<symbol id="icon-csv" viewBox="0 0 32 32">
<path fill="#ed4c5c" style="fill: var(--color2, #ed4c5c)" d="M28.163 11.235h-0.755v-3.639c-0.001-0.023-0.003-0.046-0.007-0.069 0.001-0.146-0.051-0.288-0.147-0.398l-6.067-6.922c-0.036-0.039-0.078-0.074-0.123-0.102l-0.040-0.024c-0.039-0.021-0.079-0.039-0.121-0.051l-0.033-0.011c-0.046-0.012-0.094-0.018-0.142-0.018h-14.903c-0.681 0-1.233 0.553-1.233 1.232v10.003h-0.755c-0.974 0-1.762 0.788-1.762 1.76v9.155c0 0.971 0.79 1.76 1.762 1.76h0.755v6.266c0 0.679 0.553 1.232 1.233 1.232h20.35c0.68 0 1.233-0.553 1.233-1.232v-6.266h0.755c0.973 0 1.762-0.788 1.762-1.76v-9.155c0-0.971-0.789-1.759-1.762-1.759zM5.825 1.232h14.286v6.302c0 0.341 0.276 0.615 0.617 0.615h5.448v3.085h-20.351v-10.003zM15.052 18.108c-1.497-0.534-2.486-1.362-2.486-2.669 0-1.534 1.297-2.695 3.408-2.695 1.029 0 1.764 0.2 2.298 0.453l-0.455 1.628c-0.583-0.283-1.223-0.429-1.871-0.426-0.882 0-1.31 0.413-1.31 0.867 0 0.574 0.493 0.827 1.67 1.267 1.591 0.587 2.325 1.414 2.325 2.683 0 1.509-1.149 2.789-3.621 2.789-1.029 0-2.044-0.28-2.552-0.561l0.414-1.668c0.7 0.357 1.472 0.549 2.257 0.561 0.936 0 1.43-0.388 1.43-0.975 0-0.561-0.427-0.88-1.51-1.254zM4.439 17.494c0-3.056 2.191-4.751 4.916-4.751 1.056 0 1.857 0.213 2.218 0.387l-0.428 1.614c-0.541-0.227-1.123-0.341-1.71-0.334-1.603 0-2.859 0.973-2.859 2.975 0 1.788 1.068 2.923 2.872 2.923 0.628 0 1.297-0.119 1.71-0.294l0.295 1.601c-0.361 0.172-1.217 0.387-2.298 0.387-3.114 0.001-4.717-1.947-4.717-4.509zM26.175 29.844h-20.35v-5.934h20.35v5.934zM24.528 21.871h-2.379l-2.885-8.995h2.231l1.095 3.804c0.306 1.080 0.587 2.095 0.801 3.216h0.040c0.228-1.069 0.5-2.129 0.814-3.175l1.15-3.843h2.164l-3.031 8.993z"></path>
</symbol>
<symbol id="icon-download" viewBox="0 0 32 32">
<path fill="#ed4c5c" style="fill: var(--color2, #ed4c5c)" d="M19.5 22.072h-2.316v-7.572c0-0.137-0.112-0.25-0.25-0.25h-1.875c-0.137 0-0.25 0.113-0.25 0.25v7.572h-2.309c-0.209 0-0.325 0.241-0.197 0.403l3.5 4.428c0.023 0.030 0.053 0.054 0.087 0.071s0.072 0.025 0.11 0.025c0.038 0 0.075-0.009 0.109-0.025s0.064-0.041 0.087-0.071l3.5-4.428c0.128-0.162 0.012-0.403-0.197-0.403z"></path>
<path fill="#ed4c5c" style="fill: var(--color2, #ed4c5c)" d="M25.356 11.459c-1.431-3.775-5.078-6.459-9.35-6.459s-7.919 2.681-9.35 6.456c-2.678 0.703-4.656 3.144-4.656 6.044 0 3.453 2.797 6.25 6.247 6.25h1.253c0.138 0 0.25-0.112 0.25-0.25v-1.875c0-0.137-0.112-0.25-0.25-0.25h-1.253c-1.053 0-2.044-0.419-2.781-1.178-0.734-0.756-1.125-1.775-1.091-2.831 0.028-0.825 0.309-1.6 0.819-2.253 0.522-0.666 1.253-1.15 2.066-1.366l1.184-0.309 0.434-1.144c0.269-0.713 0.644-1.378 1.116-1.981 0.466-0.598 1.018-1.123 1.637-1.559 1.284-0.903 2.797-1.381 4.375-1.381s3.091 0.478 4.375 1.381c0.622 0.438 1.172 0.963 1.638 1.559 0.472 0.603 0.847 1.272 1.116 1.981l0.431 1.141 1.181 0.313c1.694 0.456 2.878 1.997 2.878 3.753 0 1.034-0.403 2.009-1.134 2.741-0.359 0.361-0.785 0.647-1.255 0.841s-0.974 0.294-1.482 0.293h-1.253c-0.138 0-0.25 0.113-0.25 0.25v1.875c0 0.138 0.112 0.25 0.25 0.25h1.253c3.45 0 6.247-2.797 6.247-6.25 0-2.897-1.972-5.334-4.644-6.041z"></path>
</symbol>
<symbol id="icon-facebook" viewBox="0 0 32 32">
<path d="M24 2.667h-4c-1.768 0-3.464 0.702-4.714 1.953s-1.953 2.946-1.953 4.714v4h-4v5.333h4v10.667h5.333v-10.667h4l1.333-5.333h-5.333v-4c0-0.354 0.14-0.693 0.391-0.943s0.589-0.391 0.943-0.391h4v-5.333z"></path>
</symbol>
<symbol id="icon-linkedin" viewBox="0 0 32 32">
<path d="M21.333 10.667c2.122 0 4.156 0.843 5.657 2.343s2.343 3.535 2.343 5.657v9.333h-5.333v-9.333c0-0.707-0.281-1.386-0.781-1.886s-1.178-0.781-1.886-0.781c-0.707 0-1.386 0.281-1.886 0.781s-0.781 1.178-0.781 1.886v9.333h-5.333v-9.333c0-2.122 0.843-4.157 2.343-5.657s3.535-2.343 5.657-2.343z"></path>
<path d="M2.667 12h5.333v16h-5.333v-16z"></path>
<path d="M5.333 8c1.473 0 2.667-1.194 2.667-2.667s-1.194-2.667-2.667-2.667c-1.473 0-2.667 1.194-2.667 2.667s1.194 2.667 2.667 2.667z"></path>
</symbol>
<symbol id="icon-logo" viewBox="0 0 32 32">
<path fill="#fff" style="fill: var(--color1, #fff)" d="M23.84 14.4c0-0.48 0.16-0.96 0.16-1.6 0-3.52-2.88-6.4-6.4-6.4-2.56 0-4.64 1.44-5.76 3.52-0.32-0.16-0.96-0.32-1.44-0.32-2.24 0-4 1.76-4 4 0 0.32 0 0.64 0.16 0.8-2.88 0.48-4.96 2.72-4.96 5.6 0 3.040 2.56 5.6 5.6 5.6h16c3.040 0 5.6-2.56 5.6-5.6 0-2.88-2.080-5.28-4.96-5.6z"></path>
</symbol>
<symbol id="icon-pdf" viewBox="0 0 32 32">
<path fill="#ed4c5c" style="fill: var(--color2, #ed4c5c)" d="M10.845 16.306c0-0.665-0.462-1.062-1.276-1.062-0.332 0-0.557 0.032-0.675 0.064v2.135c0.14 0.032 0.311 0.043 0.547 0.043 0.868 0 1.404-0.44 1.404-1.18z"></path>
<path fill="#ed4c5c" style="fill: var(--color2, #ed4c5c)" d="M15.887 15.265c-0.365 0-0.601 0.032-0.741 0.065v4.729c0.14 0.032 0.365 0.032 0.568 0.032 1.48 0.010 2.445-0.805 2.445-2.531 0.011-1.502-0.868-2.296-2.273-2.296z"></path>
<path fill="#ed4c5c" style="fill: var(--color2, #ed4c5c)" d="M25.548 12.487h-0.593v-2.861c-0-0.018-0.002-0.036-0.005-0.054 0.001-0.115-0.040-0.227-0.115-0.314l-4.763-5.439c-0.060-0.066-0.137-0.114-0.223-0.139l-0.026-0.009c-0.036-0.009-0.074-0.014-0.111-0.014h-11.698c-0.534 0-0.968 0.435-0.968 0.968v7.862h-0.593c-0.764 0-1.383 0.619-1.383 1.383v7.195c0 0.763 0.62 1.384 1.383 1.384h0.593v4.926c0 0.533 0.434 0.968 0.968 0.968h15.974c0.533 0 0.968-0.435 0.968-0.968v-4.926h0.593c0.764 0 1.383-0.62 1.383-1.384v-7.195c0-0.764-0.62-1.383-1.383-1.383zM8.013 4.625h11.214v4.953c0 0.268 0.217 0.484 0.484 0.484h4.276v2.425h-15.975v-7.862zM19.898 17.507c0 1.384-0.504 2.338-1.202 2.928-0.761 0.632-1.919 0.933-3.335 0.933-0.847 0-1.447-0.054-1.856-0.107v-7.1c0.601-0.096 1.383-0.15 2.21-0.15 1.372 0 2.262 0.247 2.959 0.772 0.751 0.557 1.223 1.447 1.223 2.723zM7.273 21.293v-7.133c0.504-0.086 1.212-0.15 2.209-0.15 1.008 0 1.727 0.193 2.209 0.579 0.461 0.365 0.771 0.965 0.771 1.673s-0.235 1.308-0.665 1.716c-0.558 0.526-1.383 0.762-2.349 0.762-0.214 0-0.408-0.010-0.557-0.032v2.585h-1.619zM23.987 27.113h-15.974v-4.664h15.974v4.664zM25.39 15.405h-2.778v1.652h2.596v1.33h-2.596v2.906h-1.64v-7.229h4.418v1.341z"></path>
</symbol>
<symbol id="icon-play" viewBox="0 0 32 32">
<path fill="#ed4c5c" style="fill: var(--color2, #ed4c5c)" d="M32 16c0 8.837-7.163 16-16 16s-16-7.163-16-16c0-8.837 7.163-16 16-16s16 7.163 16 16z"></path>
<path fill="#fff" style="fill: var(--color1, #fff)" d="M19.273 16l-5.455 3.818v-7.636l5.455 3.818z"></path>
</symbol>
<symbol id="icon-playstore" viewBox="0 0 32 32">
<path fill="#fff" style="fill: var(--color1, #fff)" d="M3 3.718v24.562c0 0.053 0.016 0.105 0.046 0.15s0.072 0.079 0.121 0.099c0.049 0.020 0.103 0.026 0.156 0.016s0.1-0.036 0.138-0.073l12.789-12.473-12.789-12.474c-0.038-0.037-0.086-0.063-0.138-0.073s-0.106-0.005-0.156 0.016c-0.049 0.021-0.091 0.055-0.121 0.099s-0.046 0.096-0.046 0.15z"></path>
<path fill="#fff" style="fill: var(--color1, #fff)" d="M21.613 10.875l-16.046-8.841c-0.276-0.15-0.539 0.224-0.313 0.441l12.571 12.020 3.788-3.621z"></path>
<path fill="#fff" style="fill: var(--color1, #fff)" d="M5.255 29.524c-0.228 0.218 0.035 0.591 0.313 0.441l0.010-0.006 16.035-8.835-3.788-3.622-12.569 12.021z"></path>
<path fill="#fff" style="fill: var(--color1, #fff)" d="M28.086 14.437l-4.478-2.466-4.211 4.029 4.211 4.027 4.478-2.464c1.218-0.673 1.218-2.452 0-3.125z"></path>
</symbol>
<symbol id="icon-security" viewBox="0 0 32 32">
<path fill="#ed4c5c" style="fill: var(--color2, #ed4c5c)" d="M16.472 1.691l10.619 3.619c0.259 0.091 0.472 0.388 0.466 0.662v15.075c0 0.278-0.178 0.641-0.394 0.809l-10.772 8.394c-0.106 0.084-0.25 0.128-0.394 0.128s-0.284-0.044-0.394-0.128l-10.772-8.394c-0.216-0.172-0.394-0.534-0.394-0.809v-15.075c0-0.275 0.213-0.575 0.472-0.662l10.619-3.619c0.128-0.044 0.3-0.066 0.472-0.066s0.344 0.022 0.472 0.066zM16 27.703l9.313-7.256v-13.363l-9.313-3.175-9.313 3.175v13.363l9.313 7.256z"></path>
<path fill="#ed4c5c" style="fill: var(--color2, #ed4c5c)" d="M12.591 16.525c-1.097-1.738-0.887-4.066 0.628-5.581 1.759-1.759 4.609-1.759 6.369 0s1.759 4.609 0 6.369c-1.516 1.516-3.841 1.725-5.581 0.628l-2.422 2.422c-0.097 0.097-0.256 0.097-0.353 0l-1.063-1.063c-0.046-0.047-0.073-0.11-0.073-0.177s0.026-0.13 0.073-0.177l2.422-2.422zM18.172 12.359c-0.975-0.978-2.559-0.978-3.537 0s-0.975 2.559 0 3.537c0.975 0.978 2.559 0.978 3.537 0 0.978-0.975 0.978-2.559 0-3.537z"></path>
</symbol>
<symbol id="icon-twitter" viewBox="0 0 32 32">
<path d="M30.667 4c-1.277 0.901-2.691 1.589-4.187 2.040-0.803-0.923-1.87-1.578-3.057-1.875s-2.437-0.222-3.58 0.214-2.125 1.213-2.812 2.226c-0.687 1.012-1.047 2.211-1.031 3.435v1.333c-2.343 0.061-4.665-0.459-6.759-1.513s-3.894-2.609-5.241-4.527c0 0-5.333 12 6.667 17.333-2.746 1.864-6.017 2.798-9.333 2.667 12 6.667 26.667 0 26.667-15.333-0.001-0.371-0.037-0.742-0.107-1.107 1.361-1.342 2.321-3.036 2.773-4.893z"></path>
</symbol>
<symbol id="icon-usa" viewBox="0 0 32 32">
<path fill="#ed4c5c" style="fill: var(--color2, #ed4c5c)" d="M24 3.3c-2.35-1.45-5.050-2.3-8-2.3v2.3h8z"></path>
<path fill="#fff" style="fill: var(--color1, #fff)" d="M16 5.6h10.8c-0.85-0.85-1.8-1.65-2.8-2.3h-8v2.3z"></path>
<path fill="#ed4c5c" style="fill: var(--color2, #ed4c5c)" d="M16 7.9h12.65c-0.55-0.85-1.15-1.6-1.8-2.3h-10.85v2.3z"></path>
<path fill="#fff" style="fill: var(--color1, #fff)" d="M16 10.2h13.85c-0.35-0.8-0.75-1.6-1.2-2.3h-12.65v2.3z"></path>
<path fill="#ed4c5c" style="fill: var(--color2, #ed4c5c)" d="M16 12.5h14.6c-0.2-0.8-0.45-1.55-0.75-2.3h-13.85v2.3z"></path>
<path fill="#fff" style="fill: var(--color1, #fff)" d="M16 14.85h14.95c-0.050-0.8-0.2-1.55-0.35-2.3h-14.6v2.3z"></path>
<path fill="#ed4c5c" style="fill: var(--color2, #ed4c5c)" d="M30.95 14.85h-14.95v1.15h-15c0 0.4 0 0.75 0.050 1.15h29.9c0.050-0.4 0.050-0.75 0.050-1.15s0-0.8-0.050-1.15z"></path>
<path fill="#fff" style="fill: var(--color1, #fff)" d="M1.4 19.45h29.2c0.2-0.75 0.3-1.5 0.35-2.3h-29.9c0.050 0.75 0.15 1.55 0.35 2.3z"></path>
<path fill="#ed4c5c" style="fill: var(--color2, #ed4c5c)" d="M2.15 21.75h27.7c0.3-0.75 0.55-1.5 0.75-2.3h-29.2c0.2 0.8 0.45 1.55 0.75 2.3z"></path>
<path fill="#fff" style="fill: var(--color1, #fff)" d="M3.35 24.050h25.3c0.45-0.75 0.85-1.5 1.2-2.3h-27.7c0.35 0.8 0.75 1.55 1.2 2.3z"></path>
<path fill="#ed4c5c" style="fill: var(--color2, #ed4c5c)" d="M5.15 26.35h21.7c0.65-0.7 1.3-1.5 1.8-2.3h-25.3c0.5 0.85 1.15 1.6 1.8 2.3z"></path>
<path fill="#fff" style="fill: var(--color1, #fff)" d="M7.95 28.65h16.1c1.050-0.65 1.95-1.45 2.8-2.3h-21.7c0.85 0.9 1.8 1.65 2.8 2.3z"></path>
<path fill="#ed4c5c" style="fill: var(--color2, #ed4c5c)" d="M16 31c2.95 0 5.7-0.85 8.050-2.35h-16.1c2.35 1.5 5.1 2.35 8.050 2.35z"></path>
<path fill="#428bc1" style="fill: var(--color3, #428bc1)" d="M8 3.3c-1.050 0.65-2 1.45-2.85 2.3-0.7 0.7-1.3 1.5-1.8 2.3-0.45 0.75-0.9 1.5-1.2 2.3-0.3 0.75-0.55 1.5-0.75 2.3-0.2 0.75-0.3 1.5-0.35 2.3-0.050 0.4-0.050 0.8-0.050 1.2h15v-15c-2.95 0-5.65 0.85-8 2.3z"></path>
<path fill="#fff" style="fill: var(--color1, #fff)" d="M12.5 1.5l0.25 0.75h0.75l-0.6 0.5 0.2 0.75-0.6-0.45-0.6 0.45 0.2-0.75-0.6-0.5h0.75l0.25-0.75z"></path>
<path fill="#fff" style="fill: var(--color1, #fff)" d="M14.5 4.5l0.25 0.75h0.75l-0.6 0.5 0.2 0.75-0.6-0.45-0.6 0.45 0.2-0.75-0.6-0.5h0.75l0.25-0.75z"></path>
<path fill="#fff" style="fill: var(--color1, #fff)" d="M10.5 4.5l0.25 0.75h0.75l-0.6 0.5 0.2 0.75-0.6-0.45-0.6 0.45 0.2-0.75-0.6-0.5h0.75l0.25-0.75z"></path>
<path fill="#fff" style="fill: var(--color1, #fff)" d="M12.5 7.5l0.25 0.75h0.75l-0.6 0.5 0.2 0.75-0.6-0.45-0.6 0.45 0.2-0.75-0.6-0.5h0.75l0.25-0.75z"></path>
<path fill="#fff" style="fill: var(--color1, #fff)" d="M8.5 7.5l0.25 0.75h0.75l-0.6 0.5 0.2 0.75-0.6-0.45-0.6 0.45 0.2-0.75-0.6-0.5h0.75l0.25-0.75z"></path>
<path fill="#fff" style="fill: var(--color1, #fff)" d="M4.5 7.5l0.25 0.75h0.75l-0.6 0.5 0.2 0.75-0.6-0.45-0.6 0.45 0.2-0.75-0.6-0.5h0.75l0.25-0.75z"></path>
<path fill="#fff" style="fill: var(--color1, #fff)" d="M14.5 10.5l0.25 0.75h0.75l-0.6 0.5 0.2 0.75-0.6-0.45-0.6 0.45 0.2-0.75-0.6-0.5h0.75l0.25-0.75z"></path>
<path fill="#fff" style="fill: var(--color1, #fff)" d="M10.5 10.5l0.25 0.75h0.75l-0.6 0.5 0.2 0.75-0.6-0.45-0.6 0.45 0.2-0.75-0.6-0.5h0.75l0.25-0.75z"></path>
<path fill="#fff" style="fill: var(--color1, #fff)" d="M6.5 10.5l0.25 0.75h0.75l-0.6 0.5 0.2 0.75-0.6-0.45-0.6 0.45 0.2-0.75-0.6-0.5h0.75l0.25-0.75z"></path>
<path fill="#fff" style="fill: var(--color1, #fff)" d="M12.5 13.5l0.25 0.75h0.75l-0.6 0.5 0.2 0.75-0.6-0.45-0.6 0.45 0.2-0.75-0.6-0.5h0.75l0.25-0.75z"></path>
<path fill="#fff" style="fill: var(--color1, #fff)" d="M8.5 13.5l0.25 0.75h0.75l-0.6 0.5 0.2 0.75-0.6-0.45-0.6 0.45 0.2-0.75-0.6-0.5h0.75l0.25-0.75z"></path>
<path fill="#fff" style="fill: var(--color1, #fff)" d="M4.5 13.5l0.25 0.75h0.75l-0.6 0.5 0.2 0.75-0.6-0.45-0.6 0.45 0.2-0.75-0.6-0.5h0.75l0.25-0.75z"></path>
<path fill="#fff" style="fill: var(--color1, #fff)" d="M5.9 6.5l0.6-0.45 0.6 0.45-0.25-0.75 0.6-0.5h-0.75l-0.2-0.75-0.25 0.75h-0.7l0.6 0.45-0.25 0.8z"></path>
<path fill="#fff" style="fill: var(--color1, #fff)" d="M1.9 12.5l0.6-0.45 0.6 0.45-0.25-0.75 0.6-0.5h-0.7l-0.25-0.75-0.25 0.75h-0.5c0 0.050-0.050 0.1-0.050 0.15l0.4 0.3-0.2 0.8z"></path>
</symbol>
<symbol id="icon-windows" viewBox="0 0 32 32">
<path fill="#fff" style="fill: var(--color1, #fff)" d="M0 4.599l13-1.799v12.601h-13v-10.803zM14.599 2.599l17.401-2.599v15.2h-17.401v-12.601zM0 16.8h13v12.601l-13-1.803v-10.799zM14.599 16.8h17.401v15.2l-17.2-2.401z"></path>
</symbol>
</defs>
</svg>
